<svg xmlns="http://www.w3.org/2000/svg" viewBox="0 0 1775 400"><defs><style>.cls-1{fill:#1679ed;}.cls-2{fill:#fff;}</style></defs><g id="Layer_2" data-name="Layer 2"><g id="logotype_blue_white"><path class="cls-1" d="M200,0C310.45,0,400,89.55,400,200S310.45,400,200,400,0,310.46,0,200,89.54,0,200,0Zm0,325A125,125,0,0,0,325,198.22C324.05,130.9,269.1,76,201.78,75H200A125,125,0,0,0,75,200,125,125,0,0,1,200,325Z"/><path class="cls-2" d="M475,240.16l51.55.71a42.1,42.1,0,0,0,15.6,29.63q13.86,11.4,36.3,11.4,18.22,0,29.63-7.54t11.4-21.22a21.36,21.36,0,0,0-3.34-12.27q-3.33-4.91-12.44-8.59A113.64,113.64,0,0,0,586,226.67q-8.6-1.93-26.48-5.44a209.55,209.55,0,0,1-24-5.61,127.3,127.3,0,0,1-21.22-8.77,66.69,66.69,0,0,1-17.88-13A56.23,56.23,0,0,1,485,175.29a70,70,0,0,1-4.38-25.6q0-32.25,25.42-53.47T570.73,75q41.73,0,68.91,22.44t27.88,56.81H616a37.36,37.36,0,0,0-14-25.77q-12.27-10-31.21-10-16.83,0-27.17,7t-10.35,20.34q0,13.66,13.15,19.46t46.82,11.75a237.24,237.24,0,0,1,24.37,5.43,124.89,124.89,0,0,1,21.21,8.42,65.85,65.85,0,0,1,17.89,12.62A54.23,54.23,0,0,1,668,221.93a70.06,70.06,0,0,1,4.39,25.6q-.36,33.32-27.18,55.41T577.75,325q-45.6,0-73.82-23.85T475,240.16Z"/><path class="cls-2" d="M712.18,270V185.11H682.37V142.68h29.81V91.83h49.44v50.85h41v42.43h-41V264q0,8.78,3.51,12.45c2.33,2.45,6.43,3.68,12.27,3.68h29.46v42.78H764.78Q712.18,322.92,712.18,270Z"/><path class="cls-2" d="M997.47,281h7.37v42.43H979.59q-33,0-34.72-25.6-20.34,27.71-55,27.7-30.51,0-49.45-14t-18.93-39.27q0-29.46,20.69-44.89t60.31-15.43h36.47v-8.06a21.79,21.79,0,0,0-8.76-18.06Q921.38,179,906.3,179q-13.34,0-22.09,5.79a22.89,22.89,0,0,0-10.52,15.6H825.64q2.46-28.41,24.73-43.83t58.38-15.43q37.88,0,58.57,16.83T988,206.65v64.53Q988,281,997.47,281Zm-58.56-31.92V247H901q-29.81,0-29.81,21.74a17,17,0,0,0,7.19,14.2q7.19,5.44,19.11,5.44,18.94,0,30-10.7T938.91,249.08Z"/><path class="cls-2" d="M1187.76,254.19q-5.27,33-27.88,51.9T1100.79,325q-42.07,0-67.33-25.25t-25.24-67.33q0-41.73,25.42-66.8t67.85-25.07q36.12,0,58.56,18.41t27.71,51h-50.85q-3.51-13-12.8-20.52T1100.79,182q-19.29,0-30.68,13.85t-11.4,36.65q0,23.15,11.57,37.17t30.51,14q14.73,0,24.2-7.89t12.27-21.57Z"/><path class="cls-2" d="M1202.34,75h49.44V218.77l69.78-76.09h56.11l-64.52,70.84,67.68,109.4h-57.51L1278.08,250l-26.3,28.76v44.18h-49.44Z"/><path class="cls-2" d="M1515.16,142.68h49.45V322.92h-43.49l-4.56-17.53q-21,19.65-51.9,19.64-32.27,0-52.25-19.29t-20-64.87V142.68h49.45v92.93q0,47.34,34.72,47.34,18.57,0,28.58-13.15t10-37.35Z"/><path class="cls-2" d="M1689.44,140.58q37.51-.36,61.54,24.54t24,67.68q0,41.38-24,66.8T1689.79,325q-33.32,0-53-20.69V400h-49.45V142.68h43.13l4.91,21.39Q1656.82,140.58,1689.44,140.58ZM1680,284q20.34,0,32.44-14.2t12.09-37.35q0-22.78-12.09-36.82t-32.44-14q-20,0-31.91,14t-11.92,36.47q0,23.15,11.92,37.52T1680,284Z"/></g></g></svg>